PathFileType	4	(X/Y/Z)	C:\Users\WrightLab\Desktop\Jo\P5V27.trc
DataRate	CameraRate	NumFrames	NumMarkers	Units	OrigDataRate	OrigDataStartFrame	OrigNumFrames
100.00	100.00	       14	19	mm	100.00	205	       819
Frame#	Time	Headset_Front			Headset_Back			Headset_Left			Headset_Right			Left_Shoulder			Right_Shoulder			Sternum			C7			Left Elbow			Right Elbow			Left Wrist			Right Wrist			Left ASIS			Right ASIS			S2			Left Knee			Right Knee			Left Ankle			Right Ankle			
		X1	Y1	Z1	X2	Y2	Z2	X3	Y3	Z3	X4	Y4	Z4	X5	Y5	Z5	X6	Y6	Z6	X7	Y7	Z7	X8	Y8	Z8	X9	Y9	Z9	X10	Y10	Z10	X11	Y11	Z11	X12	Y12	Z12	X13	Y13	Z13	X14	Y14	Z14	X15	Y15	Z15	X16	Y16	Z16	X17	Y17	Z17	X18	Y18	Z18	X19	Y19	Z19	

205	2.040	-165.39610	1458.54077	-533.94385				-88.66130	1594.45593	-674.05737				-47.70033	1487.52478	-850.08685	-423.48788	1431.38464	-691.89160	-210.92065	1294.36377	-701.72015	-293.01285	1509.89050	-878.68573	23.50045	1199.35339	-908.60327	-542.79156	1160.16125	-698.21246	14.78350	977.02985	-800.41864	-482.54468	992.62195	-531.74335	-93.64369	909.09021	-752.61267	-370.23508	929.84070	-658.55219	-259.21271	961.57910	-970.30884	-78.56201	478.32248	-706.03101	-399.36301	488.70099	-691.93890	-138.99387	218.04478	-1073.38806	-353.67801	80.65266	-747.73810	
206	2.050	-160.57347	1458.12012	-524.68896				-87.37165	1594.71069	-669.13855				-47.69339	1487.88330	-845.09503	-423.26956	1432.31543	-685.04742	-209.89856	1294.54797	-695.83228	-293.17709	1510.42114	-871.65631	23.16866	1200.11426	-904.61707	-541.79767	1161.36182	-688.18036	14.88163	977.59857	-795.82233	-479.75806	993.15417	-521.96729	-92.35542	909.11639	-749.03796	-368.48212	929.98303	-652.33240	-260.66354	962.75934	-964.46942	-73.64727	481.76050	-696.22894	-398.74710	489.25790	-690.51593	-137.15767	218.43011	-1055.58777	-353.61502	80.63393	-747.71924	
207	2.060	-163.48619	1457.39465	-524.50562				-85.96062	1594.77808	-663.51239				-47.66280	1488.36926	-840.34613	-422.25772	1432.82593	-677.94672	-207.31801	1296.19690	-687.67395	-293.27750	1511.30481	-865.60260	22.08033	1201.48315	-901.37482	-539.78729	1161.90039	-678.81232	13.91169	978.38086	-792.02972	-475.54672	993.32648	-512.14899	-90.37704	909.68335	-743.80237	-367.00220	929.90973	-647.47382	-262.18732	963.52142	-958.71637	-69.08143	484.50705	-686.68011	-397.55814	488.98370	-688.37158	-134.63129	217.26801	-1037.75208	-353.60837	80.65480	-747.72253	
208	2.070	-156.08391	1457.97046	-513.61377				-84.56739	1595.08069	-658.31268				-47.53190	1488.56067	-835.62628	-421.66638	1433.54407	-670.61847	-206.96494	1295.05078	-683.76068	-293.45325	1511.52429	-859.33075	21.41769	1201.04260	-896.97955	-538.48492	1162.55054	-668.95099	13.25679	979.45038	-786.62299	-472.51355	994.68744	-502.10089	-89.87766	909.93134	-739.96204	-364.83209	929.79883	-641.75873	-263.70459	964.47937	-954.45874	-62.74445	489.59845	-677.40582	-395.89941	488.78452	-685.09747	-131.88579	215.08849	-1019.85504	-353.59659	80.64645	-747.71790	
209	2.080	-153.20534	1457.43799	-508.10864				-83.12063	1595.00134	-653.43225				-47.57753	1489.33130	-831.23578	-419.91919	1433.99292	-663.01898	-205.95958	1295.28198	-678.22516	-293.40561	1512.16626	-852.62335	20.85176	1201.48889	-893.57983	-535.88721	1162.68188	-660.44232	13.30186	979.95367	-783.12762	-467.40054	995.30273	-491.44180	-89.29095	910.54071	-735.39703	-364.89407	929.69727	-638.49170	-264.55887	965.22791	-948.93378	-61.31030	491.24341	-669.88953	-394.20917	488.93436	-682.94250	-129.92259	212.90778	-1001.07550	-353.98242	81.36469	-747.38702	
210	2.090	-151.85210	1458.50366	-503.78641				-81.77751	1595.06738	-648.97339				-47.42304	1489.56042	-826.69720	-419.42191	1434.60754	-655.87787	-204.18085	1296.02393	-673.22131	-293.53668	1512.74121	-846.74866	20.18122	1200.96643	-888.09778	-534.21881	1162.80469	-650.63342	13.62503	981.10529	-778.19427	-464.84094	996.23517	-484.10349	-87.25134	911.62335	-730.28369	-361.38162	929.56671	-633.02142	-265.15857	965.78082	-944.06506	-59.17363	494.28287	-662.66168	-393.36179	488.36740	-680.70441	-127.62083	209.19086	-981.84637	-353.99042	81.38326	-747.39319	
211	2.100	-149.23466	1458.32214	-498.25037				-80.23716	1594.83948	-644.28357				-47.38126	1490.31641	-822.54156	-417.12091	1434.58032	-649.27039	-202.48611	1296.83179	-668.10217	-293.53235	1513.26233	-840.62347	19.54975	1200.62756	-884.93988	-531.78082	1162.95605	-641.51672	14.10563	981.40527	-773.49719	-460.28455	996.84119	-474.47168	-86.17352	912.56720	-724.52954	-358.69882	927.82294	-629.27460	-265.55560	966.31982	-939.69098	-56.92210	497.87735	-654.53198	-391.20465	487.34180	-677.58838	-124.98937	204.61650	-961.74640	-353.91693	81.39921	-747.37994	
212	2.110	-146.78157	1457.60266	-493.97430				-78.89577	1595.44250	-639.74536				-47.20256	1490.52930	-817.95618	-415.40134	1434.77527	-642.47235	-202.27919	1296.45813	-662.55005	-293.48282	1513.76685	-834.88269	20.13188	1202.14197	-880.90430	-529.92334	1163.31921	-631.65588	14.09609	981.72498	-769.13226	-456.21625	997.94714	-465.77600	-86.29224	913.01031	-720.84222	-357.10809	928.53925	-626.54767	-265.60382	966.48523	-934.08160	-55.86357	500.98856	-646.62012	-389.84930	487.99258	-674.70172	-122.66936	198.89709	-941.33380	-353.91937	81.44030	-747.39008	
213	2.120	-144.55511	1457.47400	-488.82098				-77.26357	1595.15833	-634.31390				-46.90295	1490.81909	-813.20374	-413.60861	1434.68689	-634.60406	-201.36536	1296.03699	-657.91772	-293.44812	1514.18091	-828.82904	20.49755	1202.24109	-876.30481	-527.29382	1163.69324	-622.97021	14.39239	982.31561	-766.23248	-452.93207	998.83392	-456.29535	-86.68081	912.96460	-715.56049	-354.60132	928.30981	-621.78357	-265.45132	967.93536	-930.08234	-54.44803	503.03778	-640.11652	-388.63437	488.01547	-671.29022	-120.15034	192.72536	-921.24310	-353.88266	81.45377	-747.38477	
214	2.130	-141.95062	1457.63110	-483.15793				-75.77525	1595.32507	-629.39423				-46.71151	1491.11475	-809.23132	-412.39078	1435.43445	-627.89514	-200.12106	1296.56592	-652.60767	-293.19647	1514.73291	-822.80139	19.34884	1202.89844	-874.28766	-525.64099	1164.42261	-613.03979	15.02892	982.24426	-761.45648	-448.05496	999.43799	-446.93384	-85.77331	914.12109	-711.07605	-353.38699	928.23004	-617.91876	-265.32013	967.39624	-923.60028	-53.16031	504.95377	-632.91626	-387.75021	487.66098	-670.67377	-117.65276	186.34363	-899.54016	-353.83704	81.47138	-747.37830	
215	2.140	-139.60222	1456.31848	-479.24741				-74.18020	1595.25354	-624.90387				-46.25072	1491.12939	-803.84540	-409.73981	1435.27087	-620.96039	-201.13652	1295.65588	-651.18457	-293.03333	1514.81580	-816.72357	18.51716	1203.12231	-869.76123	-522.45483	1164.06226	-604.37360	15.23191	982.71552	-758.28033	-443.79465	1000.58246	-437.95499	-85.22172	914.39990	-706.78931	-350.84332	927.68262	-612.83331	-265.08499	968.37695	-919.32397	-52.88326	507.13971	-625.97650	-386.16876	487.19907	-667.37903	-115.53973	179.86530	-878.34558	-353.77158	81.47385	-747.36377	
216	2.150	-136.74969	1457.18042	-473.07672				-72.51869	1595.07825	-620.22852				-45.97097	1491.49988	-799.52344	-409.19290	1435.42212	-614.54156	-198.33223	1296.83594	-642.41504	-292.65042	1515.35254	-810.42450	19.26398	1203.17529	-865.95087	-519.77051	1164.13379	-594.17566	14.42333	982.44000	-756.43964	-439.11673	1001.22101	-428.65442	-85.12666	914.27484	-703.70203	-349.56384	928.23895	-608.71625	-264.58972	968.81738	-913.85352	-52.97773	507.66647	-620.28851	-385.26675	487.74951	-664.59009	-112.23390	172.10789	-855.83966	-353.65778	81.81032	-746.94586	
217	2.160	-135.46971	1455.79541	-468.58014				-70.92457	1595.09827	-615.84991				-45.62273	1491.68506	-795.67114	-405.44272	1435.03381	-607.13879	-196.10966	1296.54590	-637.32269	-292.28165	1515.65759	-804.29822	19.72825	1203.33240	-861.46259	-515.82666	1163.45862	-585.46698	15.72170	982.40607	-753.10651	-433.86914	1001.57336	-419.42126	-84.89371	914.62415	-698.98358	-348.61435	929.10413	-604.17944	-263.78986	968.43652	-908.58746	-52.79784	509.26904	-614.59589	-384.46918	488.36816	-661.74878	-108.95066	164.75569	-834.48651	-353.60223	81.81109	-746.93317	
218	2.170	-132.63837	1455.41187	-463.80328				-69.07398	1594.65002	-610.82385				-45.23195	1492.06042	-791.77490	-403.85760	1435.02307	-600.27124	-195.09460	1296.34692	-632.67395	-291.98975	1515.74951	-798.49847	19.71138	1203.84094	-859.34906	-512.69208	1163.37793	-576.26660	17.17259	983.14014	-748.38116	-428.55957	1002.82483	-409.87088	-84.63845	915.19641	-695.03693	-348.45493	929.26794	-598.68958	-263.26428	969.71381	-903.71082	-52.74465	510.40744	-608.44788	-384.08240	488.26105	-659.46088	-106.77320	157.11725	-811.02002	-353.30865	82.36690	-746.19214	
